<?xml version="1.0" standalone="no"?>
<!DOCTYPE svg PUBLIC "-//W3C//DTD SVG 20010904//EN"
 "http://www.w3.org/TR/2001/REC-SVG-20010904/DTD/svg10.dtd">
<svg version="1.0" xmlns="http://www.w3.org/2000/svg"
 width="3745.000000pt" height="3977.000000pt" viewBox="0 0 3745.000000 3977.000000"
 preserveAspectRatio="xMidYMid meet">

<g transform="translate(0.000000,3977.000000) scale(0.100000,-0.100000)"
fill="#000000" stroke="none">
<path d="M18490 29440 c-1057 -56 -1906 -256 -2655 -625 -831 -409 -1526 -962
-2080 -1655 -811 -1014 -1320 -2356 -1449 -3825 -39 -431 -46 -1089 -16 -1495
109 -1506 615 -2949 1402 -3992 836 -1109 2094 -1883 3603 -2217 844 -186
1825 -238 2745 -145 1051 106 2073 401 3183 918 l99 46 86 -41 c1682 -795
3301 -1092 5024 -919 934 94 1751 325 2513 710 667 337 1220 755 1696 1281 63
69 141 159 174 200 33 41 62 76 65 79 3 3 34 43 69 90 34 47 72 98 84 113 12
16 28 39 37 52 8 13 46 70 84 127 38 57 80 120 93 141 12 20 34 54 47 75 79
125 279 509 365 702 11 25 31 71 45 102 14 31 26 59 26 62 0 4 9 25 19 49 83
183 202 524 316 907 98 330 208 895 250 1290 9 80 20 183 25 229 32 295 37
1112 10 1486 -21 294 -88 791 -140 1040 -46 223 -105 465 -145 600 -81 271
-87 289 -167 515 -27 77 -65 177 -88 230 -10 25 -33 79 -51 120 -72 171 -260
553 -332 675 -20 33 -52 89 -73 125 -29 51 -201 314 -284 434 -14 20 -120 161
-147 196 -168 214 -485 557 -664 716 -36 33 -83 75 -105 94 -148 133 -401 325
-614 467 -934 624 -1873 931 -3160 1035 -224 18 -1281 18 -1510 0 -1515 -119
-2636 -530 -3472 -1274 -42 -37 -80 -68 -85 -68 -4 1 -39 28 -78 62 -598 520
-1258 852 -2120 1067 -407 101 -813 163 -1363 207 -223 18 -1020 27 -1262 14z
m9435 -2330 c869 -48 1568 -295 2185 -774 127 -98 453 -421 535 -530 144 -190
191 -258 267 -386 327 -551 515 -1185 605 -2035 26 -249 27 -282 27 -795 0
-480 -2 -559 -22 -770 -42 -439 -98 -781 -178 -1095 -19 -77 -41 -163 -48
-190 -19 -73 -113 -346 -154 -445 -19 -47 -43 -106 -53 -133 -11 -26 -23 -55
-28 -65 -6 -9 -42 -82 -81 -162 -39 -80 -77 -152 -84 -160 -7 -8 -25 -37 -41
-65 -30 -54 -137 -216 -185 -280 -16 -22 -37 -51 -47 -65 -67 -98 -305 -350
-465 -493 -343 -307 -781 -557 -1222 -697 -813 -258 -1720 -253 -2606 15 -386
117 -854 317 -1205 515 -60 34 -127 72 -147 83 l-38 21 0 1028 0 1028 1330 0
1330 0 0 1140 0 1140 -4280 0 -4280 0 0 -1145 0 -1145 1325 0 1325 0 0 -1025
0 -1024 -84 -50 c-474 -280 -1146 -550 -1641 -660 -369 -82 -595 -106 -1005
-106 -341 0 -422 6 -685 47 -554 86 -1060 287 -1487 589 -653 464 -1114 1099
-1379 1904 -158 478 -245 946 -301 1615 -18 209 -18 1094 0 1285 64 704 160
1150 354 1643 250 636 638 1147 1168 1539 508 375 1106 597 1830 679 188 21
678 30 865 15 826 -65 1465 -341 1980 -856 322 -321 555 -707 701 -1160 21
-66 39 -121 40 -123 1 -2 290 51 643 117 l640 120 288 -54 c159 -30 351 -66
428 -80 77 -14 230 -43 340 -64 l200 -37 38 115 c20 64 44 130 52 148 8 17 15
35 15 39 0 16 125 283 173 369 195 349 455 645 782 889 587 440 1353 636 2280
586z"/>
<path d="M26390 25615 c-540 -98 -908 -616 -815 -1149 74 -421 400 -747 821
-821 536 -93 1054 277 1149 821 83 477 -205 954 -672 1113 -145 49 -333 63
-483 36z"/>
<path d="M19917 25574 c-387 -70 -693 -351 -794 -730 -23 -86 -26 -118 -26
-249 0 -131 3 -163 26 -249 164 -611 841 -920 1407 -642 263 129 451 359 527
642 23 86 26 118 26 249 0 131 -3 163 -26 249 -134 502 -633 822 -1140 730z"/>
</g>
</svg>
